<svg xmlns="http://www.w3.org/2000/svg" xmlns:xlink="http://www.w3.org/1999/xlink" contentStyleType="text/css" data-diagram-type="SEQUENCE" height="2031px" preserveAspectRatio="none" style="width:1192px;height:2031px;background:#FEFEFE;" version="1.1" viewBox="0 0 1192 2031" width="1192px" zoomAndPan="magnify"><title>Git Hygiene &#8212; Architecture Overview</title><defs/><g><rect fill="#FEFEFE" height="2031" style="stroke:none;stroke-width:1;" width="1192" x="0" y="0"/><text fill="#000000" font-family="Helvetica" font-size="22" font-weight="bold" lengthAdjust="spacing" textLength="390.0166" x="399.9426" y="39.9404">Git Hygiene &#8212; Architecture Overview</text><rect fill="#F3F4F6" height="1960" style="stroke:#000000;stroke-width:1;" width="366.0547" x="324.1943" y="65"/><text fill="#000000" font-family="Helvetica" font-size="13" font-weight="bold" lengthAdjust="spacing" textLength="238.3101" x="388.0667" y="83.0103">GitHub Actions Runner (ubuntu-latest)</text><rect fill="#FFFFFF" height="99" style="stroke:#000000;stroke-width:1;" width="299.8203" x="318.1943" y="499"/><rect fill="#FFFFFF" height="706" style="stroke:#000000;stroke-width:1;" width="666.1216" x="509.7803" y="811"/><rect fill="#FFFFFF" height="130" style="stroke:#000000;stroke-width:1;" width="464.0806" x="529.7803" y="930"/><rect fill="#FFFFFF" height="380" style="stroke:#000000;stroke-width:1;" width="646.1216" x="519.7803" y="1074"/><rect fill="#FFFFFF" height="236" style="stroke:#000000;stroke-width:1;" width="366.4531" x="529.7803" y="1112"/><rect fill="#FFFFFF" height="111" style="stroke:none;stroke-width:1;" width="366.4531" x="529.7803" y="1237"/><rect fill="#FFFFFF" height="158" style="stroke:#000000;stroke-width:1;" width="378.0547" x="318.1943" y="1713"/><rect fill="#FFFFFF" height="72" style="stroke:none;stroke-width:1;" width="378.0547" x="318.1943" y="1799"/><g><title>Developer</title><rect fill="#000000" fill-opacity="0.00000" height="1774" width="8" x="48.9067" y="157"/><line style="stroke:#000000;stroke-width:1;" x1="52" x2="52" y1="157" y2="1931"/></g><g><title>GitHub</title><rect fill="#000000" fill-opacity="0.00000" height="1774" width="8" x="234.8457" y="157"/><line style="stroke:#000000;stroke-width:1;" x1="238.0596" x2="238.0596" y1="157" y2="1931"/></g><g><title>action.yml</title><rect fill="#000000" fill-opacity="0.00000" height="1774" width="8" x="406.3838" y="157"/><line style="stroke:#000000;stroke-width:1;" x1="410.1943" x2="410.1943" y1="157" y2="1931"/></g><g><title>lint_commits.py</title><rect fill="#000000" fill-opacity="0.00000" height="1774" width="8" x="609.0146" y="157"/><line style="stroke:#000000;stroke-width:1;" x1="612.7803" x2="612.7803" y1="157" y2="1931"/></g><g><title>LanguageTool API</title><rect fill="#000000" fill-opacity="0.00000" height="1774" width="8" x="896.8716" y="157"/><line style="stroke:#000000;stroke-width:1;" x1="899.8823" x2="899.8823" y1="157" y2="1931"/></g><g><title>LLM</title><rect fill="#000000" fill-opacity="0.00000" height="1774" width="8" x="1070.8813" y="157"/><line style="stroke:#000000;stroke-width:1;" x1="1074.8608" x2="1074.8608" y1="157" y2="1931"/></g><g class="participant participant-head" data-participant="dev"><text fill="#000000" font-family="Helvetica" font-size="14" lengthAdjust="spacing" textLength="63.8135" x="18" y="145.7803">Developer</text><ellipse cx="52.9067" cy="75" fill="#FFFFFF" rx="8" ry="8" style="stroke:#000000;stroke-width:1;"/><path d="M52.9067,83 L52.9067,110 M39.9067,91 L65.9067,91 M52.9067,110 L39.9067,125 M52.9067,110 L65.9067,125" fill="none" style="stroke:#000000;stroke-width:1;"/></g><g class="participant participant-tail" data-participant="dev"><text fill="#000000" font-family="Helvetica" font-size="14" lengthAdjust="spacing" textLength="63.8135" x="18" y="1948.7803">Developer</text><ellipse cx="52.9067" cy="1969" fill="#FFFFFF" rx="8" ry="8" style="stroke:#000000;stroke-width:1;"/><path d="M52.9067,1977 L52.9067,2004 M39.9067,1985 L65.9067,1985 M52.9067,2004 L39.9067,2019 M52.9067,2004 L65.9067,2019" fill="none" style="stroke:#000000;stroke-width:1;"/></g><g class="participant participant-head" data-participant="gh"><rect fill="#E8F5E9" height="44" rx="2.5" ry="2.5" style="stroke:#000000;stroke-width:1;" width="73.5723" x="202.0596" y="112"/><text fill="#000000" font-family="Helvetica" font-size="14" lengthAdjust="spacing" textLength="43.5723" x="217.0596" y="137.7803">GitHub</text></g><g class="participant participant-tail" data-participant="gh"><rect fill="#E8F5E9" height="44" rx="2.5" ry="2.5" style="stroke:#000000;stroke-width:1;" width="73.5723" x="202.0596" y="1930"/><text fill="#000000" font-family="Helvetica" font-size="14" lengthAdjust="spacing" textLength="43.5723" x="217.0596" y="1955.7803">GitHub</text></g><g class="participant participant-head" data-participant="action"><rect fill="#BBDEFB" height="58" rx="2.5" ry="2.5" style="stroke:#000000;stroke-width:1;" width="144.3789" x="338.1943" y="98"/><text fill="#000000" font-family="Helvetica" font-size="14" lengthAdjust="spacing" textLength="63.0205" x="378.8735" y="123.7803">action.yml</text><text fill="#000000" font-family="Helvetica" font-size="14" lengthAdjust="spacing" textLength="114.3789" x="353.1943" y="137.7803">(composite action)</text></g><g class="participant participant-tail" data-participant="action"><rect fill="#BBDEFB" height="58" rx="2.5" ry="2.5" style="stroke:#000000;stroke-width:1;" width="144.3789" x="338.1943" y="1930"/><text fill="#000000" font-family="Helvetica" font-size="14" lengthAdjust="spacing" textLength="63.0205" x="378.8735" y="1955.7803">action.yml</text><text fill="#000000" font-family="Helvetica" font-size="14" lengthAdjust="spacing" textLength="114.3789" x="353.1943" y="1969.7803">(composite action)</text></g><g class="participant participant-head" data-participant="linter"><rect fill="#BBDEFB" height="44" rx="2.5" ry="2.5" style="stroke:#000000;stroke-width:1;" width="126.4688" x="549.7803" y="112"/><text fill="#000000" font-family="Helvetica" font-size="14" lengthAdjust="spacing" textLength="96.4688" x="564.7803" y="137.7803">lint_commits.py</text></g><g class="participant participant-tail" data-participant="linter"><rect fill="#BBDEFB" height="44" rx="2.5" ry="2.5" style="stroke:#000000;stroke-width:1;" width="126.4688" x="549.7803" y="1930"/><text fill="#000000" font-family="Helvetica" font-size="14" lengthAdjust="spacing" textLength="96.4688" x="564.7803" y="1955.7803">lint_commits.py</text></g><g class="participant participant-head" data-participant="lt"><rect fill="#FFF3E0" height="44" rx="2.5" ry="2.5" style="stroke:#000000;stroke-width:1;" width="145.9785" x="827.8823" y="112"/><text fill="#000000" font-family="Helvetica" font-size="14" lengthAdjust="spacing" textLength="115.9785" x="842.8823" y="137.7803">LanguageTool API</text></g><g class="participant participant-tail" data-participant="lt"><rect fill="#FFF3E0" height="44" rx="2.5" ry="2.5" style="stroke:#000000;stroke-width:1;" width="145.9785" x="827.8823" y="1930"/><text fill="#000000" font-family="Helvetica" font-size="14" lengthAdjust="spacing" textLength="115.9785" x="842.8823" y="1955.7803">LanguageTool API</text></g><g class="participant participant-head" data-participant="llm_svc"><rect fill="#E8EAF6" height="58" rx="2.5" ry="2.5" style="stroke:#000000;stroke-width:1;" width="142.041" x="1003.8608" y="98"/><text fill="#000000" font-family="Helvetica" font-size="14" lengthAdjust="spacing" textLength="27.2344" x="1061.2642" y="123.7803">LLM</text><text fill="#000000" font-family="Helvetica" font-size="14" lengthAdjust="spacing" textLength="112.041" x="1018.8608" y="137.7803">(Remote or Local)</text></g><g class="participant participant-tail" data-participant="llm_svc"><rect fill="#E8EAF6" height="58" rx="2.5" ry="2.5" style="stroke:#000000;stroke-width:1;" width="142.041" x="1003.8608" y="1930"/><text fill="#000000" font-family="Helvetica" font-size="14" lengthAdjust="spacing" textLength="27.2344" x="1061.2642" y="1955.7803">LLM</text><text fill="#000000" font-family="Helvetica" font-size="14" lengthAdjust="spacing" textLength="112.041" x="1018.8608" y="1969.7803">(Remote or Local)</text></g><rect fill="#FFFFFF" height="3" style="stroke:#FFFFFF;stroke-width:1;" width="1180.9019" x="5" y="194.5"/><line style="stroke:#000000;stroke-width:0.5;" x1="5" x2="1185.9019" y1="194.5" y2="194.5"/><line style="stroke:#000000;stroke-width:0.5;" x1="5" x2="1185.9019" y1="197.5" y2="197.5"/><rect fill="#FFFFFF" height="37" style="stroke:#000000;stroke-width:1;" width="166.5127" x="512.1946" y="177"/><text fill="#000000" font-family="Helvetica" font-size="13" font-weight="bold" lengthAdjust="spacing" textLength="132.9009" x="526.1946" y="199.0103">PR Opened / Updated</text><g class="message" data-participant-1="dev" data-participant-2="gh"><polygon fill="#555555" points="226.8457,255,236.8457,259,226.8457,263,230.8457,259" style="stroke:#555555;stroke-width:1;"/><line style="stroke:#555555;stroke-width:1;" x1="52.9067" x2="232.8457" y1="259" y2="259"/><text fill="#000000" font-family="Helvetica" font-size="13" lengthAdjust="spacing" textLength="145.939" x="67.9067" y="246.0103">Push commits / Open PR</text></g><g class="message" data-participant-1="gh" data-participant-2="action"><polygon fill="#555555" points="398.3838,311,408.3838,315,398.3838,319,402.3838,315" style="stroke:#555555;stroke-width:1;"/><line style="stroke:#555555;stroke-width:1;" x1="238.8457" x2="404.3838" y1="315" y2="315"/><text fill="#000000" font-family="Helvetica" font-size="13" lengthAdjust="spacing" textLength="59.249" x="253.8457" y="289.0103">Trigger on</text><text fill="#000000" font-family="Helvetica" font-size="13" lengthAdjust="spacing" textLength="106.2407" x="253.8457" y="302.0103">pull_request event</text></g><rect fill="#FFFFFF" height="3" style="stroke:#FFFFFF;stroke-width:1;" width="1180.9019" x="5" y="350.5"/><line style="stroke:#000000;stroke-width:0.5;" x1="5" x2="1185.9019" y1="350.5" y2="350.5"/><line style="stroke:#000000;stroke-width:0.5;" x1="5" x2="1185.9019" y1="353.5" y2="353.5"/><rect fill="#FFFFFF" height="37" style="stroke:#000000;stroke-width:1;" width="69.7236" x="560.5891" y="333"/><text fill="#000000" font-family="Helvetica" font-size="13" font-weight="bold" lengthAdjust="spacing" textLength="36.1118" x="574.5891" y="355.0103">Setup</text><g class="message" data-participant-1="action" data-participant-2="action"><line style="stroke:#555555;stroke-width:1;" x1="410.3838" x2="452.3838" y1="415" y2="415"/><line style="stroke:#555555;stroke-width:1;" x1="452.3838" x2="452.3838" y1="415" y2="428"/><line style="stroke:#555555;stroke-width:1;" x1="411.3838" x2="452.3838" y1="428" y2="428"/><polygon fill="#555555" points="421.3838,424,411.3838,428,421.3838,432,417.3838,428" style="stroke:#555555;stroke-width:1;"/><text fill="#000000" font-family="Helvetica" font-size="13" lengthAdjust="spacing" textLength="110.5825" x="425.3838" y="402.0103">Set up Python 3.13</text></g><g class="message" data-participant-1="action" data-participant-2="action"><line style="stroke:#555555;stroke-width:1;" x1="410.3838" x2="452.3838" y1="471" y2="471"/><line style="stroke:#555555;stroke-width:1;" x1="452.3838" x2="452.3838" y1="471" y2="484"/><line style="stroke:#555555;stroke-width:1;" x1="411.3838" x2="452.3838" y1="484" y2="484"/><polygon fill="#555555" points="421.3838,480,411.3838,484,421.3838,488,417.3838,484" style="stroke:#555555;stroke-width:1;"/><text fill="#000000" font-family="Helvetica" font-size="13" lengthAdjust="spacing" textLength="131.498" x="425.3838" y="458.0103">pip install llm, requests</text></g><path d="M318.1943,499 L394.3652,499 L394.3652,520 L384.3652,530 L318.1943,530 L318.1943,499" fill="#FFFFFF" style="stroke:#000000;stroke-width:1;"/><rect fill="none" height="99" style="stroke:#000000;stroke-width:1;" width="299.8203" x="318.1943" y="499"/><text fill="#000000" font-family="Helvetica" font-size="13" font-weight="bold" lengthAdjust="spacing" textLength="15.1709" x="341.1943" y="518.0103">alt</text><text fill="#000000" font-family="Helvetica" font-size="11" font-weight="bold" lengthAdjust="spacing" textLength="124.3838" x="417.3652" y="517.4702">[use-local-model = true]</text><g class="message" data-participant-1="action" data-participant-2="action"><line style="stroke:#555555;stroke-width:1;" x1="410.3838" x2="452.3838" y1="577" y2="577"/><line style="stroke:#555555;stroke-width:1;" x1="452.3838" x2="452.3838" y1="577" y2="590"/><line style="stroke:#555555;stroke-width:1;" x1="411.3838" x2="452.3838" y1="590" y2="590"/><polygon fill="#555555" points="421.3838,586,411.3838,590,421.3838,594,417.3838,590" style="stroke:#555555;stroke-width:1;"/><text fill="#000000" font-family="Helvetica" font-size="13" lengthAdjust="spacing" textLength="172.6309" x="425.3838" y="564.0103">pip install mlx-lm[cpu], llm-mlx</text></g><rect fill="#FFFFFF" height="3" style="stroke:#FFFFFF;stroke-width:1;" width="1180.9019" x="5" y="632.5"/><line style="stroke:#000000;stroke-width:0.5;" x1="5" x2="1185.9019" y1="632.5" y2="632.5"/><line style="stroke:#000000;stroke-width:0.5;" x1="5" x2="1185.9019" y1="635.5" y2="635.5"/><rect fill="#FFFFFF" height="37" style="stroke:#000000;stroke-width:1;" width="144.1182" x="523.3918" y="615"/><text fill="#000000" font-family="Helvetica" font-size="13" font-weight="bold" lengthAdjust="spacing" textLength="110.5063" x="537.3918" y="637.0103">Lint Each Commit</text><g class="message" data-participant-1="action" data-participant-2="linter"><polygon fill="#555555" points="601.0146,706,611.0146,710,601.0146,714,605.0146,710" style="stroke:#555555;stroke-width:1;"/><line style="stroke:#555555;stroke-width:1;" x1="410.3838" x2="607.0146" y1="710" y2="710"/><text fill="#000000" font-family="Helvetica" font-size="13" lengthAdjust="spacing" textLength="117.0381" x="425.3838" y="684.0103">Run lint_commits.py</text><text fill="#000000" font-family="Helvetica" font-size="13" lengthAdjust="spacing" textLength="125.7026" x="425.3838" y="697.0103">(env vars from inputs)</text></g><g class="message" data-participant-1="linter" data-participant-2="gh"><polygon fill="#555555" points="249.8457,749,239.8457,753,249.8457,757,245.8457,753" style="stroke:#555555;stroke-width:1;"/><line style="stroke:#555555;stroke-width:1;" x1="243.8457" x2="612.0146" y1="753" y2="753"/><text fill="#000000" font-family="Helvetica" font-size="13" lengthAdjust="spacing" textLength="258.686" x="263.8457" y="740.0103">GET /repos/{owner}/{repo}/pulls/{pr}/commits</text></g><g class="message" data-participant-1="gh" data-participant-2="linter"><polygon fill="#555555" points="601.0146,792,611.0146,796,601.0146,800,605.0146,796" style="stroke:#555555;stroke-width:1;"/><line style="stroke:#555555;stroke-width:1;stroke-dasharray:2,2;" x1="238.8457" x2="607.0146" y1="796" y2="796"/><text fill="#000000" font-family="Helvetica" font-size="13" lengthAdjust="spacing" textLength="193.248" x="253.8457" y="783.0103">List of commits (SHA + message)</text></g><path d="M509.7803,811 L598.2148,811 L598.2148,832 L588.2148,842 L509.7803,842 L509.7803,811" fill="#FFFFFF" style="stroke:#000000;stroke-width:1;"/><rect fill="none" height="706" style="stroke:#000000;stroke-width:1;" width="666.1216" x="509.7803" y="811"/><text fill="#000000" font-family="Helvetica" font-size="13" font-weight="bold" lengthAdjust="spacing" textLength="27.4346" x="532.7803" y="830.0103">loop</text><text fill="#000000" font-family="Helvetica" font-size="11" font-weight="bold" lengthAdjust="spacing" textLength="145.4922" x="621.2148" y="829.4702">[For each commit message]</text><g class="message" data-participant-1="linter" data-participant-2="linter"><line style="stroke:#555555;stroke-width:1;" x1="613.0146" x2="655.0146" y1="902" y2="902"/><line style="stroke:#555555;stroke-width:1;" x1="655.0146" x2="655.0146" y1="902" y2="915"/><line style="stroke:#555555;stroke-width:1;" x1="614.0146" x2="655.0146" y1="915" y2="915"/><polygon fill="#555555" points="624.0146,911,614.0146,915,624.0146,919,620.0146,915" style="stroke:#555555;stroke-width:1;"/><text fill="#000000" font-family="Helvetica" font-size="13" lengthAdjust="spacing" textLength="127.1816" x="628.0146" y="876.0103">Check ignore patterns</text><text fill="#000000" font-family="Helvetica" font-size="13" lengthAdjust="spacing" textLength="117.749" x="628.0146" y="889.0103">(skip Merge, Revert)</text></g><path d="M529.7803,930 L691.2192,930 L691.2192,951 L681.2192,961 L529.7803,961 L529.7803,930" fill="#FFFFFF" style="stroke:#000000;stroke-width:1;"/><rect fill="none" height="130" style="stroke:#000000;stroke-width:1;" width="464.0806" x="529.7803" y="930"/><text fill="#000000" font-family="Helvetica" font-size="13" font-weight="bold" lengthAdjust="spacing" textLength="100.439" x="552.7803" y="949.0103">Grammar Check</text><g class="message" data-participant-1="linter" data-participant-2="lt"><polygon fill="#555555" points="888.8716,1005,898.8716,1009,888.8716,1013,892.8716,1009" style="stroke:#555555;stroke-width:1;"/><line style="stroke:#555555;stroke-width:1;" x1="613.0146" x2="894.8716" y1="1009" y2="1009"/><text fill="#000000" font-family="Helvetica" font-size="13" lengthAdjust="spacing" textLength="93.9199" x="628.0146" y="983.0103">POST /v2/check</text><text fill="#000000" font-family="Helvetica" font-size="13" lengthAdjust="spacing" textLength="90.3589" x="628.0146" y="996.0103">{text, language}</text></g><g class="message" data-participant-1="lt" data-participant-2="linter"><polygon fill="#555555" points="624.0146,1048,614.0146,1052,624.0146,1056,620.0146,1052" style="stroke:#555555;stroke-width:1;"/><line style="stroke:#555555;stroke-width:1;stroke-dasharray:2,2;" x1="618.0146" x2="899.8716" y1="1052" y2="1052"/><text fill="#000000" font-family="Helvetica" font-size="13" lengthAdjust="spacing" textLength="247.8569" x="638.0146" y="1039.0103">{matches: [{message, rule, replacements}]}</text></g><path d="M519.7803,1074 L681.2002,1074 L681.2002,1095 L671.2002,1105 L519.7803,1105 L519.7803,1074" fill="#FFFFFF" style="stroke:#000000;stroke-width:1;"/><rect fill="none" height="380" style="stroke:#000000;stroke-width:1;" width="646.1216" x="519.7803" y="1074"/><text fill="#000000" font-family="Helvetica" font-size="13" font-weight="bold" lengthAdjust="spacing" textLength="100.4199" x="542.7803" y="1093.0103">Structure Check</text><path d="M529.7803,1112 L605.9512,1112 L605.9512,1133 L595.9512,1143 L529.7803,1143 L529.7803,1112" fill="#FFFFFF" style="stroke:#000000;stroke-width:1;"/><rect fill="none" height="236" style="stroke:#000000;stroke-width:1;" width="366.4531" x="529.7803" y="1112"/><text fill="#000000" font-family="Helvetica" font-size="13" font-weight="bold" lengthAdjust="spacing" textLength="15.1709" x="552.7803" y="1131.0103">alt</text><text fill="#000000" font-family="Helvetica" font-size="11" font-weight="bold" lengthAdjust="spacing" textLength="124.3838" x="628.9512" y="1130.4702">[use-local-model = true]</text><g class="message" data-participant-1="linter" data-participant-2="linter"><line style="stroke:#555555;stroke-width:1;" x1="613.0146" x2="655.0146" y1="1216" y2="1216"/><line style="stroke:#555555;stroke-width:1;" x1="655.0146" x2="655.0146" y1="1216" y2="1229"/><line style="stroke:#555555;stroke-width:1;" x1="614.0146" x2="655.0146" y1="1229" y2="1229"/><polygon fill="#555555" points="624.0146,1225,614.0146,1229,624.0146,1233,620.0146,1229" style="stroke:#555555;stroke-width:1;"/><text fill="#000000" font-family="Helvetica" font-size="13" lengthAdjust="spacing" textLength="83.1035" x="628.0146" y="1177.0103">_load_model()</text><text fill="#000000" font-family="Helvetica" font-size="13" lengthAdjust="spacing" textLength="117" x="628.0146" y="1190.0103">llm-mlx &#8594; MlxModel</text><text fill="#000000" font-family="Helvetica" font-size="13" lengthAdjust="spacing" textLength="248.2188" x="628.0146" y="1203.0103">(Hugging Face download + CPU inference)</text></g><line style="stroke:#000000;stroke-width:1;stroke-dasharray:2,2;" x1="529.7803" x2="896.2334" y1="1238" y2="1238"/><text fill="#000000" font-family="Helvetica" font-size="11" font-weight="bold" lengthAdjust="spacing" textLength="69.0615" x="542.7803" y="1254.4702">[Remote API]</text><g class="message" data-participant-1="linter" data-participant-2="linter"><line style="stroke:#555555;stroke-width:1;" x1="613.0146" x2="655.0146" y1="1327" y2="1327"/><line style="stroke:#555555;stroke-width:1;" x1="655.0146" x2="655.0146" y1="1327" y2="1340"/><line style="stroke:#555555;stroke-width:1;" x1="614.0146" x2="655.0146" y1="1340" y2="1340"/><polygon fill="#555555" points="624.0146,1336,614.0146,1340,624.0146,1344,620.0146,1340" style="stroke:#555555;stroke-width:1;"/><text fill="#000000" font-family="Helvetica" font-size="13" lengthAdjust="spacing" textLength="83.1035" x="628.0146" y="1288.0103">_load_model()</text><text fill="#000000" font-family="Helvetica" font-size="13" lengthAdjust="spacing" textLength="89.5845" x="628.0146" y="1301.0103">llm.get_model()</text><text fill="#000000" font-family="Helvetica" font-size="13" lengthAdjust="spacing" textLength="150.2871" x="628.0146" y="1314.0103">(OpenAI / Anthropic / etc.)</text></g><g class="message" data-participant-1="linter" data-participant-2="llm_svc"><polygon fill="#555555" points="1062.8813,1399,1072.8813,1403,1062.8813,1407,1066.8813,1403" style="stroke:#555555;stroke-width:1;"/><line style="stroke:#555555;stroke-width:1;" x1="613.0146" x2="1068.8813" y1="1403" y2="1403"/><text fill="#000000" font-family="Helvetica" font-size="13" lengthAdjust="spacing" textLength="143.7744" x="628.0146" y="1377.0103">Prompt: evaluate commit</text><text fill="#000000" font-family="Helvetica" font-size="13" lengthAdjust="spacing" textLength="106.9326" x="628.0146" y="1390.0103">message structure</text></g><g class="message" data-participant-1="llm_svc" data-participant-2="linter"><polygon fill="#555555" points="624.0146,1442,614.0146,1446,624.0146,1450,620.0146,1446" style="stroke:#555555;stroke-width:1;"/><line style="stroke:#555555;stroke-width:1;stroke-dasharray:2,2;" x1="618.0146" x2="1073.8813" y1="1446" y2="1446"/><text fill="#000000" font-family="Helvetica" font-size="13" lengthAdjust="spacing" textLength="164.7217" x="638.0146" y="1433.0103">JSON {issues: [...], score: N}</text></g><g class="message" data-participant-1="linter" data-participant-2="linter"><line style="stroke:#555555;stroke-width:1;" x1="613.0146" x2="655.0146" y1="1496" y2="1496"/><line style="stroke:#555555;stroke-width:1;" x1="655.0146" x2="655.0146" y1="1496" y2="1509"/><line style="stroke:#555555;stroke-width:1;" x1="614.0146" x2="655.0146" y1="1509" y2="1509"/><polygon fill="#555555" points="624.0146,1505,614.0146,1509,624.0146,1513,620.0146,1509" style="stroke:#555555;stroke-width:1;"/><text fill="#000000" font-family="Helvetica" font-size="13" lengthAdjust="spacing" textLength="161.0972" x="628.0146" y="1483.0103">Collect CommitIssue results</text></g><rect fill="#FFFFFF" height="3" style="stroke:#FFFFFF;stroke-width:1;" width="1180.9019" x="5" y="1551.5"/><line style="stroke:#000000;stroke-width:0.5;" x1="5" x2="1185.9019" y1="1551.5" y2="1551.5"/><line style="stroke:#000000;stroke-width:0.5;" x1="5" x2="1185.9019" y1="1554.5" y2="1554.5"/><rect fill="#FFFFFF" height="37" style="stroke:#000000;stroke-width:1;" width="75.5" x="557.7009" y="1534"/><text fill="#000000" font-family="Helvetica" font-size="13" font-weight="bold" lengthAdjust="spacing" textLength="41.8882" x="571.7009" y="1556.0103">Report</text><g class="message" data-participant-1="linter" data-participant-2="linter"><line style="stroke:#555555;stroke-width:1;" x1="613.0146" x2="655.0146" y1="1629" y2="1629"/><line style="stroke:#555555;stroke-width:1;" x1="655.0146" x2="655.0146" y1="1629" y2="1642"/><line style="stroke:#555555;stroke-width:1;" x1="614.0146" x2="655.0146" y1="1642" y2="1642"/><polygon fill="#555555" points="624.0146,1638,614.0146,1642,624.0146,1646,620.0146,1642" style="stroke:#555555;stroke-width:1;"/><text fill="#000000" font-family="Helvetica" font-size="13" lengthAdjust="spacing" textLength="77.3145" x="628.0146" y="1603.0103">build_report()</text><text fill="#000000" font-family="Helvetica" font-size="13" lengthAdjust="spacing" textLength="125.6836" x="628.0146" y="1616.0103">(Markdown summary)</text></g><g class="message" data-participant-1="linter" data-participant-2="gh"><polygon fill="#555555" points="249.8457,1694,239.8457,1698,249.8457,1702,245.8457,1698" style="stroke:#555555;stroke-width:1;"/><line style="stroke:#555555;stroke-width:1;" x1="243.8457" x2="612.0146" y1="1698" y2="1698"/><text fill="#000000" font-family="Helvetica" font-size="13" lengthAdjust="spacing" textLength="289.0405" x="263.8457" y="1672.0103">POST /repos/{owner}/{repo}/issues/{pr}/comments</text><text fill="#000000" font-family="Helvetica" font-size="13" lengthAdjust="spacing" textLength="182.0762" x="263.8457" y="1685.0103">(create or update PR comment)</text></g><path d="M318.1943,1713 L394.3652,1713 L394.3652,1734 L384.3652,1744 L318.1943,1744 L318.1943,1713" fill="#FFFFFF" style="stroke:#000000;stroke-width:1;"/><rect fill="none" height="158" style="stroke:#000000;stroke-width:1;" width="378.0547" x="318.1943" y="1713"/><text fill="#000000" font-family="Helvetica" font-size="13" font-weight="bold" lengthAdjust="spacing" textLength="15.1709" x="341.1943" y="1732.0103">alt</text><text fill="#000000" font-family="Helvetica" font-size="11" font-weight="bold" lengthAdjust="spacing" textLength="200.7661" x="417.3652" y="1731.4702">[Issues found AND fail-on-error = true]</text><g class="message" data-participant-1="linter" data-participant-2="action"><polygon fill="#555555" points="421.3838,1787,411.3838,1791,421.3838,1795,417.3838,1791" style="stroke:#555555;stroke-width:1;"/><line style="stroke:#555555;stroke-width:1;" x1="415.3838" x2="612.0146" y1="1791" y2="1791"/><text fill="#000000" font-family="Helvetica" font-size="13" lengthAdjust="spacing" textLength="119.2153" x="435.3838" y="1778.0103">exit 1 (fail the check)</text></g><line style="stroke:#000000;stroke-width:1;stroke-dasharray:2,2;" x1="318.1943" x2="696.249" y1="1800" y2="1800"/><text fill="#000000" font-family="Helvetica" font-size="11" font-weight="bold" lengthAdjust="spacing" textLength="59.2915" x="331.1943" y="1816.4702">[No issues]</text><g class="message" data-participant-1="linter" data-participant-2="action"><polygon fill="#555555" points="421.3838,1859,411.3838,1863,421.3838,1867,417.3838,1863" style="stroke:#555555;stroke-width:1;"/><line style="stroke:#555555;stroke-width:1;" x1="415.3838" x2="612.0146" y1="1863" y2="1863"/><text fill="#000000" font-family="Helvetica" font-size="13" lengthAdjust="spacing" textLength="70.8018" x="435.3838" y="1850.0103">exit 0 (pass)</text></g><g class="message" data-participant-1="action" data-participant-2="gh"><polygon fill="#555555" points="249.8457,1909,239.8457,1913,249.8457,1917,245.8457,1913" style="stroke:#555555;stroke-width:1;"/><line style="stroke:#555555;stroke-width:1;stroke-dasharray:2,2;" x1="243.8457" x2="409.3838" y1="1913" y2="1913"/><text fill="#000000" font-family="Helvetica" font-size="13" lengthAdjust="spacing" textLength="131.5381" x="263.8457" y="1900.0103">Check status &#9989; or &#10060;</text></g><!--SRC=[bLNBJYD75DttLzp0nYZOdWcPQ6A9I0RiWGWCming65b5zwNTehggKW-3PI5bawooYh9CVeuloQdkDZOUD55ioMfNtUSvzzp-na-vP39I52fnTuKomegIRaHwbriTL7QefRQqFHp4xvf5nhSYI3_Koey48cmTivonBrAnjMQLwj9enSgF_LmoMKwzKBdaDHCZignGERrVE-jRg- -RpE-gpzhbI7i- -A8-V8wEaiGN7da-59wEvtd1YkdfrxyGBvqM7ic3PJgViPqLV9ya8lNmFU8PIstOad1eQvOW3VeeZ52UjX3gEDninRjyIjk3zyDtWn-J6_smlA9-wWkj75q6fH2a5Mw2yg4jXMVdTxPGszxm- -4F2T6BmA9owynBUQrQ5KuE9L9zl5Cbh9zf- -3WQ30ys0mW2-KdS2mBxpfcNdd4CzImz62L4KfzsT4f60WYvokj9VKlJcf7Ns6uDtYpONnwXl8kkGJe1B1ETIfaNPsKvSJDqeZ9e8_-alrzkhYaSmFKC-hIHvC1WepszvC4i5BxfuXWZow2cr9JDyoYFVmItC6YQRb7LxR8SxIYrRKoGSg9vLy202MmfNoLRCm-c2fyuxNkZql2xSNSJ_5_h_DsxpKhKnWgbFD2ojZFBZLPN2A0I73Sbh7XTgapbhHFtWO63_yHgPGFRLb-Iatul1l3jd4GkQYgFWL5D13fb0uh33OQQ1ZinN6Y3Oh11AiPpOHrT6jrYOGcUBUJD4vBX3yChgXh6HFLNUXx3ELZTn7_FdOZaZWqE6d2LhYlvpqj0BA-VMQeDJxkqxTKidCOcfqaaLeR6c8ME3PHcoslWSsgbkUGXrDExwZ8bORyZF0uLGxDGDE6pjZcl4kNuDLwX2UAmZRq0LelXQsTSVeYiezpT3v6cxFlkccqk5OBpmyUU3VZ_LZx-9VTBKhXOUzwz6dHr0pIWuo_Z2sOOXigxnu_H_UAicKzOt1VBv1LHLyTaesIbnLCf1RPfB9jxLohPZpewVS_wKm-dCLpG7CSyZnknI4geWmaHY_GS7Zn4QpVicMLWeoOWwLZQXGAEV-Vp9sS_UgW5QNOFu4c-yfFhJP5YcVsQQT913WsGZSh06HW78tlGPr21iY-cOjhrO1CRWbV7Q9nVC7Dp-Fp4IqAvqB5JwVJWNnSYg7fqMYDZzScJ4k9zTv8wYI609yEBoZtBBnBAC3MSdibmaqeP3QnbKq5nfcmTn5uSY7EuVmBbTNpzwhCwXvMEeiZ5RUyPL6lqL3jnhWkcsiCVXocgdA8ExxPg3ywebjHoBPMRSORqQvcQrNAymBY1yZmBRMY1-6jJfKiTf9gF4QQwfg-ulk6MaOuR9CAiEL6MdPRQnZxpGT7Jt__5hju-kUFv5y0]--></g></svg>