<svg xmlns="http://www.w3.org/2000/svg" xmlns:xlink="http://www.w3.org/1999/xlink" contentStyleType="text/css" data-diagram-type="SEQUENCE" height="2495px" preserveAspectRatio="none" style="width:1217px;height:2495px;background:#FEFEFE;" version="1.1" viewBox="0 0 1217 2495" width="1217px" zoomAndPan="magnify"><title>Git Hygiene &#8212; Architecture Overview</title><defs/><g><rect fill="#FEFEFE" height="2495" style="stroke:none;stroke-width:1;" width="1217" x="0" y="0"/><text fill="#000000" font-family="Helvetica" font-size="22" font-weight="bold" lengthAdjust="spacing" textLength="390.0166" x="412.4319" y="39.9404">Git Hygiene &#8212; Architecture Overview</text><rect fill="#F3F4F6" height="2424" style="stroke:#000000;stroke-width:1;" width="335.04" x="324.1943" y="65"/><text fill="#000000" font-family="Helvetica" font-size="13" font-weight="bold" lengthAdjust="spacing" textLength="238.3101" x="372.5593" y="83.0103">GitHub Actions Runner (ubuntu-latest)</text><rect fill="#FFFFFF" height="211" style="stroke:#000000;stroke-width:1;" width="748.9966" x="318.1943" y="512"/><rect fill="#FFFFFF" height="875" style="stroke:#000000;stroke-width:1;" width="722.1147" x="478.7656" y="1005"/><rect fill="#FFFFFF" height="256" style="stroke:#000000;stroke-width:1;" width="484.0806" x="488.7656" y="1124"/><rect fill="#FFFFFF" height="199" style="stroke:#000000;stroke-width:1;" width="464.0806" x="498.7656" y="1174"/><rect fill="#FFFFFF" height="423" style="stroke:#000000;stroke-width:1;" width="702.1147" x="488.7656" y="1394"/><rect fill="#FFFFFF" height="296" style="stroke:#000000;stroke-width:1;" width="682.1147" x="498.7656" y="1432"/><rect fill="#FFFFFF" height="141" style="stroke:none;stroke-width:1;" width="682.1147" x="498.7656" y="1587"/><rect fill="#FFFFFF" height="158" style="stroke:#000000;stroke-width:1;" width="347.04" x="318.1943" y="2076"/><rect fill="#FFFFFF" height="72" style="stroke:none;stroke-width:1;" width="347.04" x="318.1943" y="2162"/><g><title>Developer</title><rect fill="#000000" fill-opacity="0.00000" height="2238" width="8" x="48.9067" y="157"/><line style="stroke:#000000;stroke-width:1;" x1="52" x2="52" y1="157" y2="2395"/></g><g><title>GitHub</title><rect fill="#000000" fill-opacity="0.00000" height="2238" width="8" x="234.8457" y="157"/><line style="stroke:#000000;stroke-width:1;" x1="238.0596" x2="238.0596" y1="157" y2="2395"/></g><g><title>action.yml</title><rect fill="#000000" fill-opacity="0.00000" height="2238" width="8" x="406.3838" y="157"/><line style="stroke:#000000;stroke-width:1;" x1="410.1943" x2="410.1943" y1="157" y2="2395"/></g><g><title>lint_commits.py</title><rect fill="#000000" fill-opacity="0.00000" height="2238" width="8" x="578" y="157"/><line style="stroke:#000000;stroke-width:1;" x1="581.7656" x2="581.7656" y1="157" y2="2395"/></g><g><title>LanguageTool API</title><rect fill="#000000" fill-opacity="0.00000" height="2238" width="8" x="865.8569" y="157"/><line style="stroke:#000000;stroke-width:1;" x1="868.8677" x2="868.8677" y1="157" y2="2395"/></g><g><title>Ollama</title><rect fill="#000000" fill-opacity="0.00000" height="2238" width="8" x="1006.0186" y="157"/><line style="stroke:#000000;stroke-width:1;" x1="1009.8462" x2="1009.8462" y1="157" y2="2395"/></g><g><title>LLM API</title><rect fill="#000000" fill-opacity="0.00000" height="2238" width="8" x="1115.0356" y="157"/><line style="stroke:#000000;stroke-width:1;" x1="1118.1909" x2="1118.1909" y1="157" y2="2395"/></g><g class="participant participant-head" data-participant="dev"><text fill="#000000" font-family="Helvetica" font-size="14" lengthAdjust="spacing" textLength="63.8135" x="18" y="145.7803">Developer</text><ellipse cx="52.9067" cy="75" fill="#FFFFFF" rx="8" ry="8" style="stroke:#000000;stroke-width:1;"/><path d="M52.9067,83 L52.9067,110 M39.9067,91 L65.9067,91 M52.9067,110 L39.9067,125 M52.9067,110 L65.9067,125" fill="none" style="stroke:#000000;stroke-width:1;"/></g><g class="participant participant-tail" data-participant="dev"><text fill="#000000" font-family="Helvetica" font-size="14" lengthAdjust="spacing" textLength="63.8135" x="18" y="2412.7803">Developer</text><ellipse cx="52.9067" cy="2433" fill="#FFFFFF" rx="8" ry="8" style="stroke:#000000;stroke-width:1;"/><path d="M52.9067,2441 L52.9067,2468 M39.9067,2449 L65.9067,2449 M52.9067,2468 L39.9067,2483 M52.9067,2468 L65.9067,2483" fill="none" style="stroke:#000000;stroke-width:1;"/></g><g class="participant participant-head" data-participant="gh"><rect fill="#E8F5E9" height="44" rx="2.5" ry="2.5" style="stroke:#000000;stroke-width:1;" width="73.5723" x="202.0596" y="112"/><text fill="#000000" font-family="Helvetica" font-size="14" lengthAdjust="spacing" textLength="43.5723" x="217.0596" y="137.7803">GitHub</text></g><g class="participant participant-tail" data-participant="gh"><rect fill="#E8F5E9" height="44" rx="2.5" ry="2.5" style="stroke:#000000;stroke-width:1;" width="73.5723" x="202.0596" y="2394"/><text fill="#000000" font-family="Helvetica" font-size="14" lengthAdjust="spacing" textLength="43.5723" x="217.0596" y="2419.7803">GitHub</text></g><g class="participant participant-head" data-participant="action"><rect fill="#BBDEFB" height="58" rx="2.5" ry="2.5" style="stroke:#000000;stroke-width:1;" width="144.3789" x="338.1943" y="98"/><text fill="#000000" font-family="Helvetica" font-size="14" lengthAdjust="spacing" textLength="63.0205" x="378.8735" y="123.7803">action.yml</text><text fill="#000000" font-family="Helvetica" font-size="14" lengthAdjust="spacing" textLength="114.3789" x="353.1943" y="137.7803">(composite action)</text></g><g class="participant participant-tail" data-participant="action"><rect fill="#BBDEFB" height="58" rx="2.5" ry="2.5" style="stroke:#000000;stroke-width:1;" width="144.3789" x="338.1943" y="2394"/><text fill="#000000" font-family="Helvetica" font-size="14" lengthAdjust="spacing" textLength="63.0205" x="378.8735" y="2419.7803">action.yml</text><text fill="#000000" font-family="Helvetica" font-size="14" lengthAdjust="spacing" textLength="114.3789" x="353.1943" y="2433.7803">(composite action)</text></g><g class="participant participant-head" data-participant="linter"><rect fill="#BBDEFB" height="44" rx="2.5" ry="2.5" style="stroke:#000000;stroke-width:1;" width="126.4688" x="518.7656" y="112"/><text fill="#000000" font-family="Helvetica" font-size="14" lengthAdjust="spacing" textLength="96.4688" x="533.7656" y="137.7803">lint_commits.py</text></g><g class="participant participant-tail" data-participant="linter"><rect fill="#BBDEFB" height="44" rx="2.5" ry="2.5" style="stroke:#000000;stroke-width:1;" width="126.4688" x="518.7656" y="2394"/><text fill="#000000" font-family="Helvetica" font-size="14" lengthAdjust="spacing" textLength="96.4688" x="533.7656" y="2419.7803">lint_commits.py</text></g><g class="participant participant-head" data-participant="lt"><rect fill="#FFF3E0" height="44" rx="2.5" ry="2.5" style="stroke:#000000;stroke-width:1;" width="145.9785" x="796.8677" y="112"/><text fill="#000000" font-family="Helvetica" font-size="14" lengthAdjust="spacing" textLength="115.9785" x="811.8677" y="137.7803">LanguageTool API</text></g><g class="participant participant-tail" data-participant="lt"><rect fill="#FFF3E0" height="44" rx="2.5" ry="2.5" style="stroke:#000000;stroke-width:1;" width="145.9785" x="796.8677" y="2394"/><text fill="#000000" font-family="Helvetica" font-size="14" lengthAdjust="spacing" textLength="115.9785" x="811.8677" y="2419.7803">LanguageTool API</text></g><g class="participant participant-head" data-participant="ollama"><rect fill="#E1BEE7" height="58" rx="2.5" ry="2.5" style="stroke:#000000;stroke-width:1;" width="74.3447" x="972.8462" y="98"/><text fill="#000000" font-family="Helvetica" font-size="14" lengthAdjust="spacing" textLength="44.3447" x="987.8462" y="123.7803">Ollama</text><text fill="#000000" font-family="Helvetica" font-size="14" lengthAdjust="spacing" textLength="38.1172" x="990.96" y="137.7803">(local)</text></g><g class="participant participant-tail" data-participant="ollama"><rect fill="#E1BEE7" height="58" rx="2.5" ry="2.5" style="stroke:#000000;stroke-width:1;" width="74.3447" x="972.8462" y="2394"/><text fill="#000000" font-family="Helvetica" font-size="14" lengthAdjust="spacing" textLength="44.3447" x="987.8462" y="2419.7803">Ollama</text><text fill="#000000" font-family="Helvetica" font-size="14" lengthAdjust="spacing" textLength="38.1172" x="990.96" y="2433.7803">(local)</text></g><g class="participant participant-head" data-participant="llm_remote"><rect fill="#E8EAF6" height="58" rx="2.5" ry="2.5" style="stroke:#000000;stroke-width:1;" width="83.6895" x="1077.1909" y="98"/><text fill="#000000" font-family="Helvetica" font-size="14" lengthAdjust="spacing" textLength="53.6895" x="1092.1909" y="123.7803">LLM API</text><text fill="#000000" font-family="Helvetica" font-size="14" lengthAdjust="spacing" textLength="52.8965" x="1092.5874" y="137.7803">(remote)</text></g><g class="participant participant-tail" data-participant="llm_remote"><rect fill="#E8EAF6" height="58" rx="2.5" ry="2.5" style="stroke:#000000;stroke-width:1;" width="83.6895" x="1077.1909" y="2394"/><text fill="#000000" font-family="Helvetica" font-size="14" lengthAdjust="spacing" textLength="53.6895" x="1092.1909" y="2419.7803">LLM API</text><text fill="#000000" font-family="Helvetica" font-size="14" lengthAdjust="spacing" textLength="52.8965" x="1092.5874" y="2433.7803">(remote)</text></g><rect fill="#FFFFFF" height="3" style="stroke:#FFFFFF;stroke-width:1;" width="1205.8804" x="5" y="194.5"/><line style="stroke:#000000;stroke-width:0.5;" x1="5" x2="1210.8804" y1="194.5" y2="194.5"/><line style="stroke:#000000;stroke-width:0.5;" x1="5" x2="1210.8804" y1="197.5" y2="197.5"/><rect fill="#FFFFFF" height="37" style="stroke:#000000;stroke-width:1;" width="166.5127" x="524.6838" y="177"/><text fill="#000000" font-family="Helvetica" font-size="13" font-weight="bold" lengthAdjust="spacing" textLength="132.9009" x="538.6838" y="199.0103">PR Opened / Updated</text><g class="message" data-participant-1="dev" data-participant-2="gh"><polygon fill="#555555" points="226.8457,255,236.8457,259,226.8457,263,230.8457,259" style="stroke:#555555;stroke-width:1;"/><line style="stroke:#555555;stroke-width:1;" x1="52.9067" x2="232.8457" y1="259" y2="259"/><text fill="#000000" font-family="Helvetica" font-size="13" lengthAdjust="spacing" textLength="145.939" x="67.9067" y="246.0103">Push commits / Open PR</text></g><g class="message" data-participant-1="gh" data-participant-2="action"><polygon fill="#555555" points="398.3838,311,408.3838,315,398.3838,319,402.3838,315" style="stroke:#555555;stroke-width:1;"/><line style="stroke:#555555;stroke-width:1;" x1="238.8457" x2="404.3838" y1="315" y2="315"/><text fill="#000000" font-family="Helvetica" font-size="13" lengthAdjust="spacing" textLength="59.249" x="253.8457" y="289.0103">Trigger on</text><text fill="#000000" font-family="Helvetica" font-size="13" lengthAdjust="spacing" textLength="106.2407" x="253.8457" y="302.0103">pull_request event</text></g><rect fill="#FFFFFF" height="3" style="stroke:#FFFFFF;stroke-width:1;" width="1205.8804" x="5" y="350.5"/><line style="stroke:#000000;stroke-width:0.5;" x1="5" x2="1210.8804" y1="350.5" y2="350.5"/><line style="stroke:#000000;stroke-width:0.5;" x1="5" x2="1210.8804" y1="353.5" y2="353.5"/><rect fill="#FFFFFF" height="37" style="stroke:#000000;stroke-width:1;" width="69.7236" x="573.0784" y="333"/><text fill="#000000" font-family="Helvetica" font-size="13" font-weight="bold" lengthAdjust="spacing" textLength="36.1118" x="587.0784" y="355.0103">Setup</text><g class="message" data-participant-1="action" data-participant-2="action"><line style="stroke:#555555;stroke-width:1;" x1="410.3838" x2="452.3838" y1="415" y2="415"/><line style="stroke:#555555;stroke-width:1;" x1="452.3838" x2="452.3838" y1="415" y2="428"/><line style="stroke:#555555;stroke-width:1;" x1="411.3838" x2="452.3838" y1="428" y2="428"/><polygon fill="#555555" points="421.3838,424,411.3838,428,421.3838,432,417.3838,428" style="stroke:#555555;stroke-width:1;"/><text fill="#000000" font-family="Helvetica" font-size="13" lengthAdjust="spacing" textLength="110.5825" x="425.3838" y="402.0103">Set up Python 3.13</text></g><g class="message" data-participant-1="action" data-participant-2="action"><line style="stroke:#555555;stroke-width:1;" x1="410.3838" x2="452.3838" y1="484" y2="484"/><line style="stroke:#555555;stroke-width:1;" x1="452.3838" x2="452.3838" y1="484" y2="497"/><line style="stroke:#555555;stroke-width:1;" x1="411.3838" x2="452.3838" y1="497" y2="497"/><polygon fill="#555555" points="421.3838,493,411.3838,497,421.3838,501,417.3838,497" style="stroke:#555555;stroke-width:1;"/><text fill="#000000" font-family="Helvetica" font-size="13" lengthAdjust="spacing" textLength="78.0254" x="425.3838" y="458.0103">pip install llm,</text><text fill="#000000" font-family="Helvetica" font-size="13" lengthAdjust="spacing" textLength="116.3145" x="425.3838" y="471.0103">llm-ollama, requests</text></g><path d="M318.1943,512 L394.3652,512 L394.3652,533 L384.3652,543 L318.1943,543 L318.1943,512" fill="#FFFFFF" style="stroke:#000000;stroke-width:1;"/><rect fill="none" height="211" style="stroke:#000000;stroke-width:1;" width="748.9966" x="318.1943" y="512"/><text fill="#000000" font-family="Helvetica" font-size="13" font-weight="bold" lengthAdjust="spacing" textLength="15.1709" x="341.1943" y="531.0103">alt</text><text fill="#000000" font-family="Helvetica" font-size="11" font-weight="bold" lengthAdjust="spacing" textLength="124.3838" x="417.3652" y="530.4702">[use-local-model = true]</text><g class="message" data-participant-1="action" data-participant-2="action"><line style="stroke:#555555;stroke-width:1;" x1="410.3838" x2="452.3838" y1="603" y2="603"/><line style="stroke:#555555;stroke-width:1;" x1="452.3838" x2="452.3838" y1="603" y2="616"/><line style="stroke:#555555;stroke-width:1;" x1="411.3838" x2="452.3838" y1="616" y2="616"/><polygon fill="#555555" points="421.3838,612,411.3838,616,421.3838,620,417.3838,616" style="stroke:#555555;stroke-width:1;"/><text fill="#000000" font-family="Helvetica" font-size="13" lengthAdjust="spacing" textLength="78.7617" x="425.3838" y="577.0103">Setup Ollama</text><text fill="#000000" font-family="Helvetica" font-size="13" lengthAdjust="spacing" textLength="141.6162" x="425.3838" y="590.0103">(via setup-ollama action)</text></g><g class="message" data-participant-1="action" data-participant-2="ollama"><polygon fill="#555555" points="998.0186,668,1008.0186,672,998.0186,676,1002.0186,672" style="stroke:#555555;stroke-width:1;"/><line style="stroke:#555555;stroke-width:1;" x1="410.3838" x2="1004.0186" y1="672" y2="672"/><text fill="#000000" font-family="Helvetica" font-size="13" lengthAdjust="spacing" textLength="109.8462" x="425.3838" y="646.0103">ollama pull {model}</text><text fill="#000000" font-family="Helvetica" font-size="13" lengthAdjust="spacing" textLength="115.6289" x="425.3838" y="659.0103">(e.g., qwen2.5:0.5b)</text></g><g class="message" data-participant-1="ollama" data-participant-2="action"><polygon fill="#555555" points="421.3838,711,411.3838,715,421.3838,719,417.3838,715" style="stroke:#555555;stroke-width:1;"/><line style="stroke:#555555;stroke-width:1;stroke-dasharray:2,2;" x1="415.3838" x2="1009.0186" y1="715" y2="715"/><text fill="#000000" font-family="Helvetica" font-size="13" lengthAdjust="spacing" textLength="109.1353" x="435.3838" y="702.0103">Model downloaded</text></g><rect fill="#FFFFFF" height="3" style="stroke:#FFFFFF;stroke-width:1;" width="1205.8804" x="5" y="757.5"/><line style="stroke:#000000;stroke-width:0.5;" x1="5" x2="1210.8804" y1="757.5" y2="757.5"/><line style="stroke:#000000;stroke-width:0.5;" x1="5" x2="1210.8804" y1="760.5" y2="760.5"/><rect fill="#FFFFFF" height="37" style="stroke:#000000;stroke-width:1;" width="144.1182" x="535.8811" y="740"/><text fill="#000000" font-family="Helvetica" font-size="13" font-weight="bold" lengthAdjust="spacing" textLength="110.5063" x="549.8811" y="762.0103">Lint Each Commit</text><g class="message" data-participant-1="action" data-participant-2="linter"><polygon fill="#555555" points="570,831,580,835,570,839,574,835" style="stroke:#555555;stroke-width:1;"/><line style="stroke:#555555;stroke-width:1;" x1="410.3838" x2="576" y1="835" y2="835"/><text fill="#000000" font-family="Helvetica" font-size="13" lengthAdjust="spacing" textLength="117.0381" x="425.3838" y="809.0103">Run lint_commits.py</text><text fill="#000000" font-family="Helvetica" font-size="13" lengthAdjust="spacing" textLength="125.7026" x="425.3838" y="822.0103">(env vars from inputs)</text></g><g class="message" data-participant-1="linter" data-participant-2="linter"><line style="stroke:#555555;stroke-width:1;" x1="582" x2="624" y1="891" y2="891"/><line style="stroke:#555555;stroke-width:1;" x1="624" x2="624" y1="891" y2="904"/><line style="stroke:#555555;stroke-width:1;" x1="583" x2="624" y1="904" y2="904"/><polygon fill="#555555" points="593,900,583,904,593,908,589,904" style="stroke:#555555;stroke-width:1;"/><text fill="#000000" font-family="Helvetica" font-size="13" lengthAdjust="spacing" textLength="168.3335" x="597" y="865.0103">llm.get_model(LLM_MODEL)</text><text fill="#000000" font-family="Helvetica" font-size="13" lengthAdjust="spacing" textLength="158.209" x="597" y="878.0103">(loads model via llm library)</text></g><g class="message" data-participant-1="linter" data-participant-2="gh"><polygon fill="#555555" points="249.8457,943,239.8457,947,249.8457,951,245.8457,947" style="stroke:#555555;stroke-width:1;"/><line style="stroke:#555555;stroke-width:1;" x1="243.8457" x2="581" y1="947" y2="947"/><text fill="#000000" font-family="Helvetica" font-size="13" lengthAdjust="spacing" textLength="258.686" x="263.8457" y="934.0103">GET /repos/{owner}/{repo}/pulls/{pr}/commits</text></g><g class="message" data-participant-1="gh" data-participant-2="linter"><polygon fill="#555555" points="570,986,580,990,570,994,574,990" style="stroke:#555555;stroke-width:1;"/><line style="stroke:#555555;stroke-width:1;stroke-dasharray:2,2;" x1="238.8457" x2="576" y1="990" y2="990"/><text fill="#000000" font-family="Helvetica" font-size="13" lengthAdjust="spacing" textLength="193.248" x="253.8457" y="977.0103">List of commits (SHA + message)</text></g><path d="M478.7656,1005 L567.2002,1005 L567.2002,1026 L557.2002,1036 L478.7656,1036 L478.7656,1005" fill="#FFFFFF" style="stroke:#000000;stroke-width:1;"/><rect fill="none" height="875" style="stroke:#000000;stroke-width:1;" width="722.1147" x="478.7656" y="1005"/><text fill="#000000" font-family="Helvetica" font-size="13" font-weight="bold" lengthAdjust="spacing" textLength="27.4346" x="501.7656" y="1024.0103">loop</text><text fill="#000000" font-family="Helvetica" font-size="11" font-weight="bold" lengthAdjust="spacing" textLength="145.4922" x="590.2002" y="1023.4702">[For each commit message]</text><g class="message" data-participant-1="linter" data-participant-2="linter"><line style="stroke:#555555;stroke-width:1;" x1="582" x2="624" y1="1096" y2="1096"/><line style="stroke:#555555;stroke-width:1;" x1="624" x2="624" y1="1096" y2="1109"/><line style="stroke:#555555;stroke-width:1;" x1="583" x2="624" y1="1109" y2="1109"/><polygon fill="#555555" points="593,1105,583,1109,593,1113,589,1109" style="stroke:#555555;stroke-width:1;"/><text fill="#000000" font-family="Helvetica" font-size="13" lengthAdjust="spacing" textLength="127.1816" x="597" y="1070.0103">Check ignore patterns</text><text fill="#000000" font-family="Helvetica" font-size="13" lengthAdjust="spacing" textLength="117.749" x="597" y="1083.0103">(skip Merge, Revert)</text></g><path d="M488.7656,1124 L564.9365,1124 L564.9365,1145 L554.9365,1155 L488.7656,1155 L488.7656,1124" fill="#FFFFFF" style="stroke:#000000;stroke-width:1;"/><rect fill="none" height="256" style="stroke:#000000;stroke-width:1;" width="484.0806" x="488.7656" y="1124"/><text fill="#000000" font-family="Helvetica" font-size="13" font-weight="bold" lengthAdjust="spacing" textLength="15.1709" x="511.7656" y="1143.0103">alt</text><text fill="#000000" font-family="Helvetica" font-size="11" font-weight="bold" lengthAdjust="spacing" textLength="126.2314" x="587.9365" y="1142.4702">[enable-grammar = true]</text><path d="M498.7656,1174 L723.021,1174 L723.021,1195 L713.021,1205 L498.7656,1205 L498.7656,1174" fill="#FFFFFF" style="stroke:#000000;stroke-width:1;"/><rect fill="none" height="199" style="stroke:#000000;stroke-width:1;" width="464.0806" x="498.7656" y="1174"/><text fill="#000000" font-family="Helvetica" font-size="13" font-weight="bold" lengthAdjust="spacing" textLength="163.2554" x="521.7656" y="1193.0103">Grammar Check (optional)</text><g class="message" data-participant-1="linter" data-participant-2="lt"><polygon fill="#555555" points="857.8569,1249,867.8569,1253,857.8569,1257,861.8569,1253" style="stroke:#555555;stroke-width:1;"/><line style="stroke:#555555;stroke-width:1;" x1="582" x2="863.8569" y1="1253" y2="1253"/><text fill="#000000" font-family="Helvetica" font-size="13" lengthAdjust="spacing" textLength="93.9199" x="597" y="1227.0103">POST /v2/check</text><text fill="#000000" font-family="Helvetica" font-size="13" lengthAdjust="spacing" textLength="90.3589" x="597" y="1240.0103">{text, language}</text></g><g class="message" data-participant-1="lt" data-participant-2="linter"><polygon fill="#555555" points="593,1292,583,1296,593,1300,589,1296" style="stroke:#555555;stroke-width:1;"/><line style="stroke:#555555;stroke-width:1;stroke-dasharray:2,2;" x1="587" x2="868.8569" y1="1296" y2="1296"/><text fill="#000000" font-family="Helvetica" font-size="13" lengthAdjust="spacing" textLength="247.8569" x="607" y="1283.0103">{matches: [{message, rule, replacements}]}</text></g><g class="message" data-participant-1="linter" data-participant-2="linter"><line style="stroke:#555555;stroke-width:1;" x1="582" x2="624" y1="1352" y2="1352"/><line style="stroke:#555555;stroke-width:1;" x1="624" x2="624" y1="1352" y2="1365"/><line style="stroke:#555555;stroke-width:1;" x1="583" x2="624" y1="1365" y2="1365"/><polygon fill="#555555" points="593,1361,583,1365,593,1369,589,1365" style="stroke:#555555;stroke-width:1;"/><text fill="#000000" font-family="Helvetica" font-size="13" lengthAdjust="spacing" textLength="127.1626" x="597" y="1326.0103">Filter matches against</text><text fill="#000000" font-family="Helvetica" font-size="13" lengthAdjust="spacing" textLength="139.439" x="597" y="1339.0103">custom words dictionary</text></g><path d="M488.7656,1394 L736.8818,1394 L736.8818,1415 L726.8818,1425 L488.7656,1425 L488.7656,1394" fill="#FFFFFF" style="stroke:#000000;stroke-width:1;"/><rect fill="none" height="423" style="stroke:#000000;stroke-width:1;" width="702.1147" x="488.7656" y="1394"/><text fill="#000000" font-family="Helvetica" font-size="13" font-weight="bold" lengthAdjust="spacing" textLength="187.1162" x="511.7656" y="1413.0103">Structure Check (always runs)</text><path d="M498.7656,1432 L574.9365,1432 L574.9365,1453 L564.9365,1463 L498.7656,1463 L498.7656,1432" fill="#FFFFFF" style="stroke:#000000;stroke-width:1;"/><rect fill="none" height="296" style="stroke:#000000;stroke-width:1;" width="682.1147" x="498.7656" y="1432"/><text fill="#000000" font-family="Helvetica" font-size="13" font-weight="bold" lengthAdjust="spacing" textLength="15.1709" x="521.7656" y="1451.0103">alt</text><text fill="#000000" font-family="Helvetica" font-size="11" font-weight="bold" lengthAdjust="spacing" textLength="124.3838" x="597.9365" y="1450.4702">[use-local-model = true]</text><g class="message" data-participant-1="linter" data-participant-2="ollama"><polygon fill="#555555" points="998.0186,1532,1008.0186,1536,998.0186,1540,1002.0186,1536" style="stroke:#555555;stroke-width:1;"/><line style="stroke:#555555;stroke-width:1;" x1="582" x2="1004.0186" y1="1536" y2="1536"/><text fill="#000000" font-family="Helvetica" font-size="13" lengthAdjust="spacing" textLength="140.1689" x="597" y="1497.0103">model.prompt(message,</text><text fill="#000000" font-family="Helvetica" font-size="13" lengthAdjust="spacing" textLength="169.3872" x="597" y="1510.0103">system=SYSTEM_PROMPT)</text><text fill="#000000" font-family="Helvetica" font-size="13" lengthAdjust="spacing" textLength="126.4263" x="597" y="1523.0103">(via llm-ollama plugin)</text></g><g class="message" data-participant-1="ollama" data-participant-2="linter"><polygon fill="#555555" points="593,1575,583,1579,593,1583,589,1579" style="stroke:#555555;stroke-width:1;"/><line style="stroke:#555555;stroke-width:1;stroke-dasharray:2,2;" x1="587" x2="1009.0186" y1="1579" y2="1579"/><text fill="#000000" font-family="Helvetica" font-size="13" lengthAdjust="spacing" textLength="91.7617" x="607" y="1566.0103">JSON response</text></g><line style="stroke:#000000;stroke-width:1;stroke-dasharray:2,2;" x1="498.7656" x2="1180.8804" y1="1588" y2="1588"/><text fill="#000000" font-family="Helvetica" font-size="11" font-weight="bold" lengthAdjust="spacing" textLength="69.0615" x="511.7656" y="1604.4702">[Remote API]</text><g class="message" data-participant-1="linter" data-participant-2="llm_remote"><polygon fill="#555555" points="1107.0356,1673,1117.0356,1677,1107.0356,1681,1111.0356,1677" style="stroke:#555555;stroke-width:1;"/><line style="stroke:#555555;stroke-width:1;" x1="582" x2="1113.0356" y1="1677" y2="1677"/><text fill="#000000" font-family="Helvetica" font-size="13" lengthAdjust="spacing" textLength="140.1689" x="597" y="1638.0103">model.prompt(message,</text><text fill="#000000" font-family="Helvetica" font-size="13" lengthAdjust="spacing" textLength="169.3872" x="597" y="1651.0103">system=SYSTEM_PROMPT)</text><text fill="#000000" font-family="Helvetica" font-size="13" lengthAdjust="spacing" textLength="150.2871" x="597" y="1664.0103">(OpenAI / Anthropic / etc.)</text></g><g class="message" data-participant-1="llm_remote" data-participant-2="linter"><polygon fill="#555555" points="593,1716,583,1720,593,1724,589,1720" style="stroke:#555555;stroke-width:1;"/><line style="stroke:#555555;stroke-width:1;stroke-dasharray:2,2;" x1="587" x2="1118.0356" y1="1720" y2="1720"/><text fill="#000000" font-family="Helvetica" font-size="13" lengthAdjust="spacing" textLength="91.7617" x="607" y="1707.0103">JSON response</text></g><g class="message" data-participant-1="linter" data-participant-2="linter"><line style="stroke:#555555;stroke-width:1;" x1="582" x2="624" y1="1796" y2="1796"/><line style="stroke:#555555;stroke-width:1;" x1="624" x2="624" y1="1796" y2="1809"/><line style="stroke:#555555;stroke-width:1;" x1="583" x2="624" y1="1809" y2="1809"/><polygon fill="#555555" points="593,1805,583,1809,593,1813,589,1809" style="stroke:#555555;stroke-width:1;"/><text fill="#000000" font-family="Helvetica" font-size="13" lengthAdjust="spacing" textLength="123.5635" x="597" y="1757.0103">Parse LLM response:</text><text fill="#000000" font-family="Helvetica" font-size="13" lengthAdjust="spacing" textLength="125.0107" x="597" y="1770.0103">{explains_why, score,</text><text fill="#000000" font-family="Helvetica" font-size="13" lengthAdjust="spacing" textLength="127.207" x="597" y="1783.0103">feedback, suggestion}</text></g><g class="message" data-participant-1="linter" data-participant-2="linter"><line style="stroke:#555555;stroke-width:1;" x1="582" x2="624" y1="1859" y2="1859"/><line style="stroke:#555555;stroke-width:1;" x1="624" x2="624" y1="1859" y2="1872"/><line style="stroke:#555555;stroke-width:1;" x1="583" x2="624" y1="1872" y2="1872"/><polygon fill="#555555" points="593,1868,583,1872,593,1876,589,1872" style="stroke:#555555;stroke-width:1;"/><text fill="#000000" font-family="Helvetica" font-size="13" lengthAdjust="spacing" textLength="161.0972" x="597" y="1846.0103">Collect CommitIssue results</text></g><rect fill="#FFFFFF" height="3" style="stroke:#FFFFFF;stroke-width:1;" width="1205.8804" x="5" y="1914.5"/><line style="stroke:#000000;stroke-width:0.5;" x1="5" x2="1210.8804" y1="1914.5" y2="1914.5"/><line style="stroke:#000000;stroke-width:0.5;" x1="5" x2="1210.8804" y1="1917.5" y2="1917.5"/><rect fill="#FFFFFF" height="37" style="stroke:#000000;stroke-width:1;" width="75.5" x="570.1902" y="1897"/><text fill="#000000" font-family="Helvetica" font-size="13" font-weight="bold" lengthAdjust="spacing" textLength="41.8882" x="584.1902" y="1919.0103">Report</text><g class="message" data-participant-1="linter" data-participant-2="linter"><line style="stroke:#555555;stroke-width:1;" x1="582" x2="624" y1="1992" y2="1992"/><line style="stroke:#555555;stroke-width:1;" x1="624" x2="624" y1="1992" y2="2005"/><line style="stroke:#555555;stroke-width:1;" x1="583" x2="624" y1="2005" y2="2005"/><polygon fill="#555555" points="593,2001,583,2005,593,2009,589,2005" style="stroke:#555555;stroke-width:1;"/><text fill="#000000" font-family="Helvetica" font-size="13" lengthAdjust="spacing" textLength="77.3145" x="597" y="1966.0103">build_report()</text><text fill="#000000" font-family="Helvetica" font-size="13" lengthAdjust="spacing" textLength="125.6836" x="597" y="1979.0103">(Markdown summary)</text></g><g class="message" data-participant-1="linter" data-participant-2="gh"><polygon fill="#555555" points="249.8457,2057,239.8457,2061,249.8457,2065,245.8457,2061" style="stroke:#555555;stroke-width:1;"/><line style="stroke:#555555;stroke-width:1;" x1="243.8457" x2="581" y1="2061" y2="2061"/><text fill="#000000" font-family="Helvetica" font-size="13" lengthAdjust="spacing" textLength="289.0405" x="263.8457" y="2035.0103">POST /repos/{owner}/{repo}/issues/{pr}/comments</text><text fill="#000000" font-family="Helvetica" font-size="13" lengthAdjust="spacing" textLength="182.0762" x="263.8457" y="2048.0103">(create or update PR comment)</text></g><path d="M318.1943,2076 L394.3652,2076 L394.3652,2097 L384.3652,2107 L318.1943,2107 L318.1943,2076" fill="#FFFFFF" style="stroke:#000000;stroke-width:1;"/><rect fill="none" height="158" style="stroke:#000000;stroke-width:1;" width="347.04" x="318.1943" y="2076"/><text fill="#000000" font-family="Helvetica" font-size="13" font-weight="bold" lengthAdjust="spacing" textLength="15.1709" x="341.1943" y="2095.0103">alt</text><text fill="#000000" font-family="Helvetica" font-size="11" font-weight="bold" lengthAdjust="spacing" textLength="200.7661" x="417.3652" y="2094.4702">[Issues found AND fail-on-error = true]</text><g class="message" data-participant-1="linter" data-participant-2="action"><polygon fill="#555555" points="421.3838,2150,411.3838,2154,421.3838,2158,417.3838,2154" style="stroke:#555555;stroke-width:1;"/><line style="stroke:#555555;stroke-width:1;" x1="415.3838" x2="581" y1="2154" y2="2154"/><text fill="#000000" font-family="Helvetica" font-size="13" lengthAdjust="spacing" textLength="119.2153" x="435.3838" y="2141.0103">exit 1 (fail the check)</text></g><line style="stroke:#000000;stroke-width:1;stroke-dasharray:2,2;" x1="318.1943" x2="665.2344" y1="2163" y2="2163"/><text fill="#000000" font-family="Helvetica" font-size="11" font-weight="bold" lengthAdjust="spacing" textLength="59.2915" x="331.1943" y="2179.4702">[No issues]</text><g class="message" data-participant-1="linter" data-participant-2="action"><polygon fill="#555555" points="421.3838,2222,411.3838,2226,421.3838,2230,417.3838,2226" style="stroke:#555555;stroke-width:1;"/><line style="stroke:#555555;stroke-width:1;" x1="415.3838" x2="581" y1="2226" y2="2226"/><text fill="#000000" font-family="Helvetica" font-size="13" lengthAdjust="spacing" textLength="70.8018" x="435.3838" y="2213.0103">exit 0 (pass)</text></g><g class="message" data-participant-1="action" data-participant-2="gh"><polygon fill="#555555" points="249.8457,2272,239.8457,2276,249.8457,2280,245.8457,2276" style="stroke:#555555;stroke-width:1;"/><line style="stroke:#555555;stroke-width:1;stroke-dasharray:2,2;" x1="243.8457" x2="409.3838" y1="2276" y2="2276"/><text fill="#000000" font-family="Helvetica" font-size="13" lengthAdjust="spacing" textLength="131.5381" x="263.8457" y="2263.0103">Check status &#9989; or &#10060;</text></g><path d="M587,2289 L587,2380 L755,2380 L755,2299 L745,2289 L587,2289" fill="#FFFFDD" style="stroke:#000000;stroke-width:1;"/><path d="M745,2289 L745,2299 L755,2299 L745,2289" fill="#FFFFDD" style="stroke:#000000;stroke-width:1;"/><text fill="#000000" font-family="Helvetica" font-size="13" font-weight="bold" lengthAdjust="spacing" textLength="123.5254" x="601" y="2312.0103">Local Development:</text><text fill="#000000" font-family="Helvetica" font-size="13" lengthAdjust="spacing" textLength="120.6753" x="601" y="2325.0103">lint_local.py provides</text><text fill="#000000" font-family="Helvetica" font-size="13" lengthAdjust="spacing" textLength="125.7344" x="601" y="2338.0103">the same functionality</text><text fill="#000000" font-family="Helvetica" font-size="13" lengthAdjust="spacing" textLength="98.9917" x="601" y="2351.0103">for local git repos</text><text fill="#000000" font-family="Helvetica" font-size="13" lengthAdjust="spacing" textLength="131.5107" x="601" y="2364.0103">(no GitHub integration)</text><!--SRC=[bLPTRo8t57sVNt6RVO4qaDrDqswHKebiOBEh45187wgcGcR635OyzgpjWQ08gIzzwsCVsp-tlwJ7dXa22Tgg88rcxFjnxhaVzZTkpZDEkMH2HVPUg9mPbj6KnVUfqOLAtckf3Rtgz_n_IoBXCrP8rzVANJDOEBZaSi6TYDd1bbIiirmhhjpOhIGdmsF7L2hvbaZEaaIebDvjhNMDqSlAysduRMrUQyVFN-33x-8YYfnmyFD1EBfSfO8hJbz-_mlsuhbmS5uOJiC5Dml1br74OWVT2xxWKkVS4BC8Qn713U8GELEE3c3gifWU-BrqJgzwx_gdlH-ZgNwejwWREw6LfPj2AHXf5DD2kQ8bcUFMDG-0xQJ_NV_xY6Z7C0jgxLKcxrGZy6G1aShbPd1OljEhy_EBNl_ykG4fb9j0CHFEjlDLqF1hm51hS9KGeEv6T8KC52pbjrfBweu-beekS7ZIUxqhF9IIPGm8fOwPB67fi0OktfptUZyyCtury3QXO7Y6H9KQKcQJyjipsEk2ZUZiZ4OtDCoHeuIEwUSy0M49dPr54P90hPyytnqQ5NPELPGGy_BGYx07YOgW3jqQaQO8NAixbHTImjld0lGJSgjSS3RchiY3-KfhMn-RXDtHoitnVT9-Sx9FAXSv2MKTazA7T7Idy6oLT1nHvT9636GMbhS2PQrC9rpI6JbJSAHmltFutZ2z48oiNweiroMnernjTUeN7pGz1bzhsE3jj7r4dvTSlMsVTbwtJwTUlP9jRJiV17Y9NYgfMS8JNpE1hokK4lLOFAVtWVrdr5MLrl5bJyzAqGDG2remOsbcT0RIyiBPPbGfRQk3mNRAtIH0Rw1y9eFXHU-g6KgE9PPA_Zmf48NUr32psZOLokH3xvQE3KSJ7JyY5cxMnu_-StticS5YZfKAOIYURGnN0fMYPvioQumlk_GjPTnQz4apYgJMEVKnAxZdenIhjy7hdh3UptbyJo9L6XCdPmwhoY8cZB6S1joa_8XkK9p6mJmIYvBXYaqbRwMOSHapJnL3v2TTJX-gZT9qG-S-5UZ98B83mlc-6Ox1oEBjSUp5xzIZum_kY6JL_EjQo-rIyPWn1mtReLyVgm1HsONqJuvJ8iPfePnT_xP-wRQsqHVIlrIMYANCDysTYWlhK0nBRP3MH8HIGYw38LzrvJEgunqZ_d9YLn4pkMGh2pJAba5_jT5smMtw9KYrSrHbxXfrX7VAhgpZsTdub_5jRp0PtGm7ezjcrOnFJOvpiaY5gYdVwgTDy9_6msjGPN7isH86bvOZrs7wOJI-vErfEFvlU7uSTZzYBdQLcnkTYnZltCNjJLKy6Vylc243UnCwGYDpygEzrkYWeFX3k3NOoNA-EY8RezA1TCPvucyFM2amagrFylefjVjQ1JJYQAx6p4Th2tzHiBXSsCqmka4hct84xR4mBOHC9YR8D3mj0sRk_KW31jyoByT5sHrxvuNm0BO6XYztVq8RZlE9C0EAS5BvmwlQHWVxIWp8CV3yhOIwrnSqOqAsj6fnt6Qs-la9ocO8ymVCapVKy1g46nc5fcr6eNIkDPMOlgBxcXevisYBG5WzfUjeo_x1kUKAIr_-_iD7yUMVFwD8-Rh0qJaFuwyq3Y-7XrU-e-gRaO-nStXOkP-4RiEK9rJfGYG1byTi_JLmLgYohwLmlhDdS1KKA0NCG3XM6qfJTNloFZ7ooXFEtrSyfkXV]--></g></svg>